<?xml version="1.0" encoding="UTF-8"?>
<svg id="Layer_2" data-name="Layer 2" xmlns="http://www.w3.org/2000/svg" viewBox="0 0 739.15 1287.5">
  <defs>
    <style>
      .cls-1 {
        fill: #fff;
      }
    </style>
  </defs>
  <g id="Layer_1-2" data-name="Layer 1">
    <path class="cls-1" d="M480.17,741.29c11.12-15.31,21.89-33.91,32.23-55.71l-10.66-6.49c-14.73,21.63-27.93,37.4-39.61,47.32-20.57,17.31-44.05,25.95-70.46,25.95-37.32,0-66.97-15.25-88.93-45.76-21.96-30.5-32.94-64.95-32.94-103.35,0-41.95,9.96-75.57,29.9-100.87,19.93-25.3,44.37-37.95,73.32-37.95,13.71,0,24.76,2.67,33.13,8,8.12,5.59,13.84,15.11,17.14,28.56l4.57,18.28c3.05,11.68,7.93,20.57,14.66,26.66,6.72,6.09,14.53,9.14,23.42,9.14,12.19,0,21.2-3.61,27.04-10.82,5.84-7.21,8.76-14.99,8.76-23.35,0-19.48-11.49-37.38-34.47-53.71-22.98-16.32-50.34-24.48-82.08-24.48-24.2,0-46.4,4.31-66.62,12.89,13.33-17.05,20.01-36.5,20.01-58.38,0-39.35-19.2-65-57.59-76.93-23.4-7.36-67.77-11.04-133.12-11.04-14.24,0-27.21-1.27-38.9-3.81-17.81-3.81-26.7-9.77-26.7-17.9s6.09-18.03,18.28-30.47c12.19-12.44,21.96-18.66,29.33-18.66,16.5,2.29,27.93,3.43,34.28,3.43,40.62,0,72.93-12.12,96.93-36.37,23.99-24.24,35.99-50.84,35.99-79.79,0-13.2-2.16-27.17-6.47-41.89-2.54-7.87-6.09-17.14-10.66-27.8h65.89v-30.85h-4.57c-4.83,0-12.63.19-23.42.57-10.79.38-18.85.57-24.18.57-20.57,0-42.03-4.38-64.37-13.14C206.93,4.38,186.49,0,167.96,0c-43.17,0-76.55,13.33-100.17,39.99s-35.42,54.84-35.42,84.55c0,24.38,6.41,46.34,19.23,65.89,12.82,19.55,30.78,33.13,53.89,40.75-28.7,25.39-47.42,43.74-56.18,55.03-8.76,11.3-13.14,21.65-13.14,31.04,0,10.16,5.04,19.17,15.12,27.04,5.8,4.32,14.49,8.76,26.08,13.33l-4.55,4.57-25.04,22.47c-18.97,17.26-31.68,30.28-38.13,39.04-6.45,8.76-9.67,17.71-9.67,26.85,0,18.53,12.19,36.24,36.56,53.13,24.38,16.88,57.38,25.33,99.02,25.33s82.78-9.88,123.62-29.63c-.03.03-.05.06-.08.08-33.27,37.84-49.89,83.03-49.89,135.59s15.23,95.98,45.7,127.21,65.51,46.85,105.12,46.85c13.91,0,27.25-2.02,40.02-6.07,5.47,1.65,9.26,4.38,11.35,8.2,3.68,6.73,5.52,17.2,5.52,31.42v365.62c0,27.93-3.24,45.64-9.71,53.13-6.47,7.49-20.13,12.63-40.94,15.42v10.66h167.96v-10.66c-21.58-3.05-35.68-8.12-42.28-15.23-6.61-7.11-9.9-24.88-9.9-53.32v-187.76c0-4.31,9.27-13.58,27.8-27.8,18.53-14.22,37.71-21.33,57.51-21.33,22.85,0,38.4,7.62,46.66,22.85,8.25,15.23,12.38,35.17,12.38,59.79v154.25c0,27.93-3.18,45.58-9.52,52.94-6.35,7.37-20.57,12.57-42.66,15.62v10.66h164.91v-10.66c-19.3-2.54-32.06-7.87-38.28-16-6.22-8.12-9.33-25.64-9.33-52.56v-155.39c0-29.71-4.06-53.7-12.19-71.98-14.98-34.53-43.04-51.8-84.17-51.8-25.9,0-50.02,7.62-72.36,22.85-12.44,8.63-26.66,22.09-42.66,40.37v-251.04ZM97.12,103.21c0-18.28,2.41-33.64,7.24-46.08,9.39-23.61,26.53-35.42,51.42-35.42,28.69,0,49.19,15.11,61.51,45.32,12.31,30.22,18.47,57.38,18.47,81.5,0,30.22-7.62,51.42-22.85,63.6-9.4,7.62-21.08,11.43-35.04,11.43-23.87,0-43.29-12.31-58.27-36.94-14.98-24.62-22.47-52.43-22.47-83.41ZM91.98,473.79c-23.99-8.13-35.99-22.85-35.99-44.18,0-13.71,6.02-28.7,18.06-44.94,11.78-16,19.2-23.99,22.26-23.99,6.11,1.27,15.39,2.79,27.86,4.57,12.46,1.77,21.49,2.79,27.09,3.05,8.65.51,18.19.95,28.62,1.33s20.36.7,29.77.95c36.88.51,61.94,2.41,75.18,5.71,21.37,5.58,32.06,16.88,32.06,33.9,0,21.33-13.21,39.29-39.61,53.89-26.41,14.6-60.69,21.9-102.83,21.9-30.98,0-58.46-4.06-82.46-12.19Z"/>
  </g>
</svg>